<?xml version="1.0" encoding="UTF-8" standalone="no"?>
<svg
   xmlns:osb="http://www.openswatchbook.org/uri/2009/osb"
   xmlns:dc="http://purl.org/dc/elements/1.1/"
   xmlns:cc="http://creativecommons.org/ns#"
   xmlns:rdf="http://www.w3.org/1999/02/22-rdf-syntax-ns#"
   xmlns:svg="http://www.w3.org/2000/svg"
   xmlns="http://www.w3.org/2000/svg"
   xmlns:sodipodi="http://sodipodi.sourceforge.net/DTD/sodipodi-0.dtd"
   xmlns:inkscape="http://www.inkscape.org/namespaces/inkscape"
   width="24"
   height="24"
   viewBox="0 0 24 24"
   fill="#FF4081"
   version="1.1"
   id="svg4"
   sodipodi:docname="checkbox-active.svg"
   inkscape:version="0.92+devel unknown">
  <metadata
     id="metadata10">
    <rdf:RDF>
      <cc:Work
         rdf:about="">
        <dc:format>image/svg+xml</dc:format>
        <dc:type
           rdf:resource="http://purl.org/dc/dcmitype/StillImage" />
        <dc:title></dc:title>
      </cc:Work>
    </rdf:RDF>
  </metadata>
  <defs
     id="defs8">
    <linearGradient
       id="dark_fg_color-9"
       osb:paint="solid">
      <stop
         style="stop-color:#ffffff;stop-opacity:1;"
         offset="0"
         id="stop7036" />
    </linearGradient>
    <linearGradient
       id="primary_color-3"
       osb:paint="solid">
      <stop
         style="stop-color:#e95420;stop-opacity:1;"
         offset="0"
         id="stop5679" />
    </linearGradient>
  </defs>
  <sodipodi:namedview
     pagecolor="#ffffff"
     bordercolor="#666666"
     borderopacity="1"
     objecttolerance="10"
     gridtolerance="10"
     guidetolerance="10"
     inkscape:pageopacity="0"
     inkscape:pageshadow="2"
     inkscape:window-width="1920"
     inkscape:window-height="1137"
     id="namedview6"
     showgrid="false"
     inkscape:zoom="17.981667"
     inkscape:cx="8.7757187"
     inkscape:cy="19.163998"
     inkscape:window-x="1366"
     inkscape:window-y="30"
     inkscape:window-maximized="1"
     inkscape:current-layer="svg4"
     inkscape:document-rotation="0" />
  <g
     id="checkbox-checked-hover"
     transform="matrix(1.25,0,0,1.2489993,-681.75,-296.9712)"
     style="display:inline;stroke-width:0.80000001">
    <path
       inkscape:connector-curvature="0"
       id="path5363-4"
       d="m 555,239.375 c 8,0 8,0.88888 8,8 0,7.11111 0,8 -8,8 -8,0 -8,-0.88889 -8,-8 0,-7.11112 0,-8 8,-8 z"
       style="fill:#17AA8D;fill-opacity:1;stroke:none;stroke-width:0.80000001" />
    <path
       inkscape:connector-curvature="0"
       style="fill:#17AA8D;fill-opacity:1;stroke:none;stroke-width:0.80000001"
       d="m 555,239.375 c -8,0 -8,0.88888 -8,8 0,7.11111 0,8 8,8 8,0 8,-0.88889 8,-8 0,-7.11112 0,-8 -8,-8 z m 0,1 c 1.98144,0 3.45949,0.0756 4.46875,0.25 1.00926,0.17444 1.48125,0.41667 1.78125,0.75 0.3,0.33333 0.51118,0.88855 0.625,1.875 0.11382,0.98645 0.125,2.34722 0.125,4.125 0,1.77778 -0.0112,3.13855 -0.125,4.125 -0.11382,0.98645 -0.325,1.54167 -0.625,1.875 -0.3,0.33333 -0.77199,0.57556 -1.78125,0.75 -1.00926,0.17444 -2.48731,0.25 -4.46875,0.25 -1.98144,0 -3.45949,-0.0756 -4.46875,-0.25 -1.00926,-0.17444 -1.48125,-0.41667 -1.78125,-0.75 -0.3,-0.33333 -0.51118,-0.88855 -0.625,-1.875 -0.11382,-0.98645 -0.125,-2.34722 -0.125,-4.125 0,-1.77778 0.0112,-3.13855 0.125,-4.125 0.11382,-0.98645 0.325,-1.54167 0.625,-1.875 0.3,-0.33333 0.77199,-0.57556 1.78125,-0.75 1.00926,-0.17444 2.48731,-0.25 4.46875,-0.25 z"
       id="path5365-9" />
    <polygon
       style="display:inline;opacity:1;fill:#ffffff;fill-opacity:1;stroke-width:0.56204963"
       id="polygon36-0"
       points="2.408,8.105 3.592,6.492 5.899,8.187 10.293,3.793 11.707,5.207 6.101,10.813 "
       fill="#FFFFFF"
       transform="matrix(1.4233618,0,0,1.4245023,544.95462,236.97186)" />
  </g>
</svg>
